<svg width="1200" height="300" viewBox="0 0 1200 300" xmlns="http://www.w3.org/2000/svg">
  <defs>
    <linearGradient id="bgGrad" x1="0" y1="0" x2="1" y2="1">
      <stop offset="0%" stop-color="#0A0C10"/>
      <stop offset="100%" stop-color="#0D1117"/>
    </linearGradient>
    <linearGradient id="ringFade" x1="0" y1="0" x2="1" y2="0">
      <stop offset="0%" stop-color="#6FC9AE" stop-opacity="0"/>
      <stop offset="50%" stop-color="#6FC9AE" stop-opacity="0.55"/>
      <stop offset="100%" stop-color="#6FC9AE" stop-opacity="0"/>
    </linearGradient>
  </defs>

  <rect width="1200" height="300" fill="url(#bgGrad)"/>

  <g opacity="0.5">
    <circle cx="950" cy="150" r="210" fill="none" stroke="#1B2129" stroke-width="1"/>
    <circle cx="950" cy="150" r="150" fill="none" stroke="#1B2129" stroke-width="1"/>
    <circle cx="950" cy="150" r="90" fill="none" stroke="#232B34" stroke-width="1"/>
  </g>

  <g>
    <circle cx="950" cy="150" r="150" fill="none" stroke="url(#ringFade)" stroke-width="1.5"
      stroke-dasharray="4 10" stroke-linecap="round"/>
  </g>

  <g fill="#6FC9AE">
    <circle cx="950" cy="0" r="3"/>
    <circle cx="1077" cy="75" r="2.4"/>
    <circle cx="1077" cy="225" r="2.4"/>
    <circle cx="950" cy="300" r="3"/>
    <circle cx="823" cy="225" r="2.4"/>
    <circle cx="823" cy="75" r="2.4"/>
  </g>
  <g fill="#4A5A56">
    <circle cx="1040" cy="45" r="1.6"/>
    <circle cx="1100" cy="150" r="1.6"/>
    <circle cx="1040" cy="255" r="1.6"/>
    <circle cx="860" cy="255" r="1.6"/>
    <circle cx="800" cy="150" r="1.6"/>
    <circle cx="860" cy="45" r="1.6"/>
  </g>

  <line x1="0" y1="150" x2="1200" y2="150" stroke="#161B22" stroke-width="1"/>
  <line x1="60" y1="0" x2="60" y2="300" stroke="#161B22" stroke-width="1"/>

  <text x="60" y="118" font-family="'Space Grotesk', 'Segoe UI', sans-serif" font-size="58"
    font-weight="600" fill="#EAEDF0" letter-spacing="-1">ewn0</text>

  <text x="60" y="160" font-family="'IBM Plex Mono', 'Courier New', monospace" font-size="15"
    fill="#6FC9AE" letter-spacing="2.5">CLOUD SECURITY · SECOPS</text>

  <text x="60" y="200" font-family="'IBM Plex Mono', 'Courier New', monospace" font-size="13"
    fill="#6B7480" letter-spacing="0.5">Hardening — Detection — Remediation</text>

  <line x1="60" y1="230" x2="700" y2="230" stroke="#1B2129" stroke-width="1"/>

  <text x="60" y="260" font-family="'IBM Plex Mono', 'Courier New', monospace" font-size="12.5"
    fill="#4A5560" letter-spacing="1">GOOGLE CLOUD</text>
  <text x="220" y="260" font-family="'IBM Plex Mono', 'Courier New', monospace" font-size="12.5"
    fill="#4A5560" letter-spacing="1">ACTIVE DIRECTORY</text>
  <text x="420" y="260" font-family="'IBM Plex Mono', 'Courier New', monospace" font-size="12.5"
    fill="#4A5560" letter-spacing="1">LINUX</text>
  <text x="520" y="260" font-family="'IBM Plex Mono', 'Courier New', monospace" font-size="12.5"
    fill="#4A5560" letter-spacing="1">PYTHON</text>
</svg>
