<svg viewBox="0 0 1200 300" xmlns="http://www.w3.org/2000/svg">
  <!-- Background -->
  <rect width="1200" height="300" fill="#0a0e27"/>
  
  <!-- Grid lines -->
  <line x1="0" y1="50" x2="1200" y2="50" stroke="#1a2847" stroke-width="1" opacity="0.3"/>
  <line x1="0" y1="100" x2="1200" y2="100" stroke="#1a2847" stroke-width="1" opacity="0.3"/>
  <line x1="0" y1="150" x2="1200" y2="150" stroke="#1a2847" stroke-width="1" opacity="0.3"/>
  <line x1="0" y1="200" x2="1200" y2="200" stroke="#1a2847" stroke-width="1" opacity="0.3"/>
  <line x1="0" y1="250" x2="1200" y2="250" stroke="#1a2847" stroke-width="1" opacity="0.3"/>
  <line x1="150" y1="0" x2="150" y2="300" stroke="#1a2847" stroke-width="1" opacity="0.3"/>
  <line x1="300" y1="0" x2="300" y2="300" stroke="#1a2847" stroke-width="1" opacity="0.3"/>
  <line x1="450" y1="0" x2="450" y2="300" stroke="#1a2847" stroke-width="1" opacity="0.3"/>
  <line x1="600" y1="0" x2="600" y2="300" stroke="#1a2847" stroke-width="1" opacity="0.3"/>
  <line x1="750" y1="0" x2="750" y2="300" stroke="#1a2847" stroke-width="1" opacity="0.3"/>
  <line x1="900" y1="0" x2="900" y2="300" stroke="#1a2847" stroke-width="1" opacity="0.3"/>
  <line x1="1050" y1="0" x2="1050" y2="300" stroke="#1a2847" stroke-width="1" opacity="0.3"/>
  
  <!-- Accent lines -->
  <line x1="50" y1="120" x2="200" y2="120" stroke="#00ff88" stroke-width="2" opacity="0.7"/>
  <line x1="950" y1="180" x2="1150" y2="180" stroke="#00ff88" stroke-width="2" opacity="0.7"/>
  
  <!-- Main title -->
  <text x="60" y="110" font-family="Courier New, monospace" font-size="56" font-weight="bold" fill="#ffffff" letter-spacing="2">ewn0</text>
  
  <!-- Subtitle -->
  <text x="60" y="160" font-family="Courier New, monospace" font-size="18" fill="#00ff88" letter-spacing="1">cybersecurity | automation</text>
  
  <!-- Tech tags -->
  <text x="60" y="220" font-family="Courier New, monospace" font-size="14" fill="#88ccff">python •</text>
  <text x="200" y="220" font-family="Courier New, monospace" font-size="14" fill="#88ccff">powershell •</text>
  <text x="400" y="220" font-family="Courier New, monospace" font-size="14" fill="#88ccff">windows security •</text>
  <text x="750" y="220" font-family="Courier New, monospace" font-size="14" fill="#88ccff">active directory</text>
  
  <!-- Decorative dots -->
  <circle cx="1100" cy="60" r="3" fill="#00ff88" opacity="0.6"/>
  <circle cx="1140" cy="100" r="2" fill="#88ccff" opacity="0.6"/>
  <circle cx="80" cy="280" r="2" fill="#00ff88" opacity="0.6"/>
  
  <!-- Corner brackets -->
  <polyline points="50,50 50,80 80,80" stroke="#00ff88" stroke-width="2" fill="none" opacity="0.5"/>
  <polyline points="1150,50 1150,80 1120,80" stroke="#00ff88" stroke-width="2" fill="none" opacity="0.5"/>
  <polyline points="50,270 50,240 80,240" stroke="#00ff88" stroke-width="2" fill="none" opacity="0.5"/>
  <polyline points="1150,270 1150,240 1120,240" stroke="#00ff88" stroke-width="2" fill="none" opacity="0.5"/>
</svg>